<svg width="48" height="49" viewBox="0 0 48 49" fill="none" xmlns="http://www.w3.org/2000/svg">
<g id="Train-Front--Streamline-Core-Gradient" clip-path="url(#clip0_6_556)">
<g id="Map Travel/Transportation/train-front">
<path id="Union" fill-rule="evenodd" clip-rule="evenodd" d="M6.85731 9.92857C6.85731 4.72133 11.0786 0.5 16.2859 0.5H31.7144C36.9216 0.5 41.1428 4.72133 41.1428 9.92857V28.7857C41.1428 32.0994 38.4566 34.7857 35.1428 34.7857H12.8573C9.54359 34.7857 6.85731 32.0994 6.85731 28.7857V9.92857ZM16.2859 5.64286C13.9189 5.64286 12.0002 7.56162 12.0002 9.92857V17.6429H36V9.92857C36 7.56162 34.0814 5.64286 31.7144 5.64286H16.2859ZM12.4459 25.3743C12.4459 24.1908 13.4053 23.2314 14.5887 23.2314H18.0173C19.2008 23.2314 20.1602 24.1908 20.1602 25.3743C20.1602 26.5578 19.2008 27.5171 18.0173 27.5171H14.5887C13.4053 27.5171 12.4459 26.5578 12.4459 25.3743ZM27.8745 25.3743C27.8745 24.1908 28.8338 23.2314 30.0173 23.2314H33.4459C34.6292 23.2314 35.5889 24.1908 35.5889 25.3743C35.5889 26.5578 34.6292 27.5171 33.4459 27.5171H30.0173C28.8338 27.5171 27.8745 26.5578 27.8745 25.3743ZM3.94299 44.3857L6.49648 40.9811L6.53001 40.9362L9.08584 37.5286C9.93795 36.3923 11.5497 36.1623 12.6858 37.0143C13.6076 37.7055 13.9331 38.8969 13.5681 39.9286H34.4321C34.0672 38.8969 34.3927 37.7055 35.3143 37.0143C36.4505 36.1623 38.0623 36.3923 38.9143 37.5286L41.4703 40.9366L41.5039 40.9808L44.0571 44.3857C44.9095 45.5219 44.6791 47.1337 43.5429 47.9857C42.407 48.8377 40.7952 48.6077 39.9428 47.4714L38.1428 45.0714H9.85727L8.05727 47.4714C7.2052 48.6077 5.59343 48.8377 4.45727 47.9857C3.32116 47.1337 3.0909 45.5219 3.94299 44.3857Z" fill="url(#paint0_linear_6_556)"/>
</g>
</g>
<defs>
<linearGradient id="paint0_linear_6_556" x1="48.1371" y1="58.6657" x2="-12.7783" y2="21.5754" gradientUnits="userSpaceOnUse">
<stop stop-color="#FF9A23"/>
<stop offset="1" stop-color="#FF0843"/>
</linearGradient>
<clipPath id="clip0_6_556">
<rect width="48" height="48" fill="white" transform="translate(0 0.5)"/>
</clipPath>
</defs>
</svg>
