<svg width="48" height="48" viewBox="0 0 48 48" fill="none" xmlns="http://www.w3.org/2000/svg">
<g id="User-Square-Single--Streamline-Core-Gradient">
<g id="Interface Essential/User/user-square-single--square-geometric-human-person-single-user">
<path id="Subtract" fill-rule="evenodd" clip-rule="evenodd" d="M1.71436 6.85721C1.71436 4.01688 4.01688 1.71436 6.85721 1.71436H41.1429C43.9832 1.71436 46.2858 4.01688 46.2858 6.85721V41.1429C46.2858 43.9832 43.9832 46.2858 41.1429 46.2858H6.85721C4.01688 46.2858 1.71436 43.9832 1.71436 41.1429V6.85721ZM24 30.8401C31.0978 30.8401 37.616 34.954 40.798 41.1429H7.20209C10.3839 34.954 16.9022 30.8401 24 30.8401ZM32.5713 17.1429C32.5713 21.8768 28.7337 25.7144 23.9998 25.7144C19.266 25.7144 15.4284 21.8768 15.4284 17.1429C15.4284 12.4091 19.266 8.5715 23.9998 8.5715C28.7337 8.5715 32.5713 12.4091 32.5713 17.1429Z" fill="url(#paint0_linear_7_638)"/>
</g>
</g>
<defs>
<linearGradient id="paint0_linear_7_638" x1="50.1498" y1="55.7246" x2="-9.97021" y2="13.0218" gradientUnits="userSpaceOnUse">
<stop stop-color="#FF9A23"/>
<stop offset="1" stop-color="#FF0843"/>
</linearGradient>
</defs>
</svg>
